<svg width="50" height="50" viewBox="0 0 50 50" fill="none" xmlns="http://www.w3.org/2000/svg">
<g clip-path="url(#clip0)">
<path d="M49.9137 0.702273C49.7387 0.277308 49.3228 0 48.8637 0C4.76144 0 0 18.2773 0 26.1363C0 28.9637 0.627273 31.6045 1.86595 33.9841C2.05686 34.3523 2.43409 34.5863 2.84776 34.5955C3.23864 34.5841 3.65007 34.3887 3.85686 34.0273C6.83417 28.8818 15.2659 16.1818 29.191 9.43413C29.7615 9.16141 30.4433 9.39546 30.7137 9.9569C30.9864 10.5228 30.75 11.2046 30.1865 11.4774C29.1365 11.9865 28.1274 12.541 27.1387 13.116C26.7615 13.3364 26.3955 13.5705 26.0251 13.8C25.4683 14.1455 24.9183 14.4977 24.3819 14.8614C23.8479 15.2205 23.3205 15.5887 22.8024 15.966C22.641 16.0841 22.4865 16.2046 22.3273 16.3251C8.46819 26.6523 0 43.1273 0 48.8637C0 49.491 0.509127 50.0001 1.1364 50.0001C1.76367 50.0001 2.2728 49.491 2.2728 48.8637C2.2728 47.0318 3.52053 43.3183 5.88186 38.8887C9.30917 41.691 13.9205 43.1819 19.3183 43.1819C33.9114 43.1819 36.9683 29.2955 38.6092 21.8342C40.8182 11.7932 45.6796 5.92735 49.666 1.93871C49.9933 1.61367 50.0887 1.12724 49.9137 0.702273Z" fill="#74B49B"/>
</g>
<defs>
<clipPath id="clip0">
<rect width="50" height="50" fill="white"/>
</clipPath>
</defs>
</svg>
